<svg width="841" height="97" viewBox="0 0 841 97" fill="none" xmlns="http://www.w3.org/2000/svg">
<path d="M34.304 94V16.944H0V2.60797H87.808V16.944H53.504V94H34.304Z" fill="white"/>
<path d="M85.418 94V26.16H103.082V39.344H103.338C108.074 31.664 115.37 24.368 128.938 24.368C131.626 24.368 133.674 24.624 135.978 25.008V42.416C131.114 40.88 127.786 40.752 124.714 40.752C115.754 40.752 103.082 45.488 103.082 61.232V94H85.418Z" fill="white"/>
<path d="M217.5 46.384V78.512C217.5 82.224 220.188 82.352 221.34 82.352C223.004 82.352 225.692 82.224 227.1 81.968V94.384C223.644 95.024 220.572 95.92 214.556 95.92C203.036 95.92 201.756 89.776 201.244 87.216C197.788 90.544 189.212 96.56 169.372 96.56C151.708 96.56 141.724 88.624 141.724 75.312C141.724 56.624 160.924 54.96 172.188 53.936C197.532 51.504 200.22 50.608 200.22 45.36C200.22 37.552 191.26 35.632 181.02 35.632C169.372 35.632 163.1 39.344 162.46 46.896H145.18C147.74 29.104 160.924 23.6 181.02 23.6C216.476 23.6 217.5 37.552 217.5 46.384ZM199.836 66.736V60.208C194.716 62.384 189.212 63.024 176.668 64.432C163.356 65.968 160.156 68.912 160.156 74.672C160.156 83.632 168.348 85.296 174.364 85.296C183.836 85.296 199.836 81.712 199.836 66.736Z" fill="white"/>
<path d="M250.281 60.336C250.281 71.856 256.553 82.992 273.193 82.992C289.705 82.992 295.977 71.856 295.977 60.336C295.977 49.072 289.705 37.936 273.193 37.936C256.553 37.936 250.281 49.072 250.281 60.336ZM312.873 1.07198V94H295.209V84.656H294.953C293.673 88.752 283.049 96.56 268.969 96.56C243.113 96.56 231.849 77.744 231.849 60.336C231.849 43.184 243.113 24.368 268.969 24.368C279.593 24.368 289.705 27.696 294.953 35.888H295.209V1.07198H312.873Z" fill="white"/>
<path d="M407.424 64.56H343.424C343.808 72.112 348.928 83.76 366.464 83.76C378.112 83.76 383.232 79.664 386.688 74.032H405.888C402.048 81.584 392.832 96.56 366.976 96.56C336.384 96.56 324.992 78.768 324.992 60.72C324.992 38.064 341.76 23.6 365.824 23.6C395.904 23.6 407.424 42.16 407.424 62V64.56ZM343.424 53.296H388.992C386.816 39.728 374.784 35.632 366.08 35.632C357.888 35.632 346.368 39.472 343.424 53.296Z" fill="white"/>
<path d="M416.855 28.336C416.855 7.98397 434.903 0.0479736 457.175 0.0479736C471.255 0.0479736 499.415 2.60797 501.847 29.104H481.111C480.471 22.064 474.071 14.384 458.071 14.384C445.271 14.384 436.823 18.352 436.823 26.928C436.823 48.432 504.919 27.824 504.919 66.864C504.919 90.416 480.471 96.56 461.015 96.56C428.119 96.56 414.935 83.632 414.679 64.432H435.415C435.927 76.464 445.911 82.224 461.655 82.224C473.303 82.224 484.183 78.768 484.183 68.784C484.183 46.128 416.855 65.84 416.855 28.336Z" fill="white"/>
<path d="M519.922 75.056V38.96H505.842V26.16H519.922V5.16798H537.586V26.16H556.018V38.96H537.586V69.936C537.586 77.744 537.97 81.968 543.986 81.968C548.338 81.968 552.434 81.84 556.658 81.712V94.512C551.922 95.152 548.466 95.536 543.09 95.536C521.586 95.536 519.922 87.856 519.922 75.056Z" fill="white"/>
<path d="M566.543 94V26.16H584.207V39.344H584.463C589.199 31.664 596.495 24.368 610.063 24.368C612.751 24.368 614.799 24.624 617.103 25.008V42.416C612.239 40.88 608.911 40.752 605.839 40.752C596.879 40.752 584.207 45.488 584.207 61.232V94H566.543Z" fill="white"/>
<path d="M698.625 46.384V78.512C698.625 82.224 701.313 82.352 702.465 82.352C704.129 82.352 706.817 82.224 708.225 81.968V94.384C704.769 95.024 701.697 95.92 695.681 95.92C684.161 95.92 682.881 89.776 682.369 87.216C678.913 90.544 670.337 96.56 650.497 96.56C632.833 96.56 622.849 88.624 622.849 75.312C622.849 56.624 642.049 54.96 653.313 53.936C678.657 51.504 681.345 50.608 681.345 45.36C681.345 37.552 672.385 35.632 662.145 35.632C650.497 35.632 644.225 39.344 643.585 46.896H626.305C628.865 29.104 642.049 23.6 662.145 23.6C697.601 23.6 698.625 37.552 698.625 46.384ZM680.961 66.736V60.208C675.841 62.384 670.337 63.024 657.793 64.432C644.481 65.968 641.281 68.912 641.281 74.672C641.281 83.632 649.473 85.296 655.489 85.296C664.961 85.296 680.961 81.712 680.961 66.736Z" fill="white"/>
<path d="M721.422 75.056V38.96H707.342V26.16H721.422V5.16798H739.086V26.16H757.518V38.96H739.086V69.936C739.086 77.744 739.47 81.968 745.486 81.968C749.838 81.968 753.934 81.84 758.158 81.712V94.512C753.422 95.152 749.966 95.536 744.59 95.536C723.086 95.536 721.422 87.856 721.422 75.056Z" fill="white"/>
<path d="M764.587 72.752H783.787C784.299 82.992 796.075 84.528 802.475 84.528C811.307 84.528 820.907 82.224 820.907 75.824C820.907 70.576 817.963 68.784 798.891 66.224C777.899 63.408 766.891 60.976 766.891 45.488C766.891 26.16 789.419 23.6 800.811 23.6C811.307 23.6 836.523 25.136 837.547 46.896H819.115C817.707 36.784 805.931 35.632 799.915 35.632C789.931 35.632 784.555 39.856 784.555 43.44C784.555 48.944 786.219 49.84 803.243 52.272C825.515 55.472 840.107 57.648 840.107 73.392C840.107 90.672 823.595 96.56 802.603 96.56C788.139 96.56 765.227 93.488 764.587 72.752Z" fill="white"/>
</svg>
